<svg width="100" height="100" viewBox="0 0 100 100" xmlns="http://www.w3.org/2000/svg">
  <defs>
    <linearGradient id="pumpkinGradient" x1="0%" y1="0%" x2="0%" y2="100%">
      <stop offset="0%" style="stop-color:#FF7518;stop-opacity:1" />
      <stop offset="100%" style="stop-color:#FFB366;stop-opacity:1" />
    </linearGradient>
    <filter id="shadow" x="-20%" y="-20%" width="140%" height="140%">
      <feGaussianBlur in="SourceAlpha" stdDeviation="3"/>
      <feOffset dx="2" dy="2" result="offsetblur"/>
      <feComponentTransfer>
        <feFuncA type="linear" slope="0.5"/>
      </feComponentTransfer>
      <feMerge>
        <feMergeNode/>
        <feMergeNode in="SourceGraphic"/>
      </feMerge>
    </filter>
  </defs>
  <g filter="url(#shadow)">
    <path d="M50,10 C77.61,10 100,32.39 100,60 C100,87.61 77.61,100 50,100 C22.39,100 0,87.61 0,60 C0,32.39 22.39,10 50,10 Z" fill="url(#pumpkinGradient)"/>
    <path d="M50,10 C50,10 40,2 50,2 C60,2 50,10 50,10" fill="none" stroke="#654321" stroke-width="4" stroke-linecap="round"/>
    <ellipse cx="50" cy="55" rx="35" ry="30" fill="rgba(255,255,255,0.1)"/>
    <path d="M20,60 C20,40 30,30 50,30 C70,30 80,40 80,60" fill="none" stroke="rgba(0,0,0,0.1)" stroke-width="2"/>
    <circle cx="35" cy="50" r="5" fill="white"/>
    <circle cx="65" cy="50" r="5" fill="white"/>
    <circle cx="35" cy="50" r="2" fill="black"/>
    <circle cx="65" cy="50" r="2" fill="black"/>
    <path d="M40 65 C 45 75, 55 75, 60 65" fill="none" stroke="white" stroke-width="3" stroke-linecap="round"/>
  </g>
</svg>
